<svg width="896" height="160" viewBox="0 0 896 160" fill="none" xmlns="http://www.w3.org/2000/svg">
<path d="M10.8799 92.2031V68.1624H100.031L71.9835 152.305L51.9495 147.297L68.9784 92.2031H10.8799Z" fill="white"/>
<rect x="50.9478" y="15.1927" width="22.0974" height="35.5139" transform="rotate(-19.8761 50.9478 15.1927)" fill="white"/>
<rect x="148.29" y="113.72" width="22.0974" height="35.5139" transform="rotate(127.552 148.29 113.72)" fill="white"/>
<rect x="135.946" y="29.0962" width="22.0974" height="35.5139" transform="rotate(54.4744 135.946 29.0962)" fill="white"/>
<path d="M256.152 125.664C250.093 125.664 244.397 124.469 239.064 122.08C233.731 119.648 229.037 116.299 224.984 112.032C220.973 107.765 217.816 102.837 215.512 97.248C213.251 91.616 212.12 85.6 212.12 79.2C212.12 72.7573 213.251 66.7413 215.512 61.152C217.816 55.52 220.973 50.592 224.984 46.368C229.037 42.1013 233.731 38.7733 239.064 36.384C244.397 33.952 250.093 32.736 256.152 32.736C263.405 32.736 270.083 34.4213 276.184 37.792C282.285 41.12 287.341 45.5787 291.352 51.168L277.4 58.656C274.883 55.5413 271.747 53.0453 267.992 51.168C264.28 49.2907 260.333 48.352 256.152 48.352C252.227 48.352 248.536 49.1627 245.08 50.784C241.624 52.3627 238.595 54.5813 235.992 57.44C233.389 60.256 231.363 63.5413 229.912 67.296C228.461 71.008 227.736 74.976 227.736 79.2C227.736 83.4667 228.461 87.456 229.912 91.168C231.405 94.88 233.453 98.1653 236.056 101.024C238.659 103.84 241.667 106.059 245.08 107.68C248.536 109.259 252.227 110.048 256.152 110.048C260.419 110.048 264.387 109.109 268.056 107.232C271.768 105.312 274.883 102.795 277.4 99.68L291.352 107.232C287.341 112.779 282.285 117.237 276.184 120.608C270.083 123.979 263.405 125.664 256.152 125.664ZM328.215 125.664C322.327 125.664 316.951 124.149 312.087 121.12C307.266 118.091 303.404 114.037 300.503 108.96C297.644 103.84 296.215 98.1867 296.215 92C296.215 87.3067 297.047 82.9333 298.711 78.88C300.375 74.784 302.658 71.2 305.559 68.128C308.503 65.0133 311.916 62.5813 315.799 60.832C319.682 59.0827 323.82 58.208 328.215 58.208C334.103 58.208 339.458 59.7227 344.279 62.752C349.143 65.7813 353.004 69.856 355.863 74.976C358.764 80.096 360.215 85.7707 360.215 92C360.215 96.6507 359.383 101.003 357.719 105.056C356.055 109.109 353.751 112.693 350.807 115.808C347.906 118.88 344.514 121.291 340.631 123.04C336.791 124.789 332.652 125.664 328.215 125.664ZM328.215 110.048C331.33 110.048 334.124 109.216 336.599 107.552C339.074 105.888 341.015 103.691 342.423 100.96C343.874 98.2293 344.599 95.2427 344.599 92C344.599 88.672 343.852 85.6427 342.359 82.912C340.908 80.1387 338.924 77.9413 336.407 76.32C333.932 74.656 331.202 73.824 328.215 73.824C325.143 73.824 322.37 74.656 319.895 76.32C317.42 77.984 315.458 80.2027 314.007 82.976C312.556 85.7493 311.831 88.7573 311.831 92C311.831 95.3707 312.578 98.4213 314.071 101.152C315.564 103.883 317.548 106.059 320.023 107.68C322.54 109.259 325.271 110.048 328.215 110.048ZM370.18 124V60H385.796V65.696C387.972 63.392 390.575 61.5787 393.604 60.256C396.633 58.8907 399.897 58.208 403.396 58.208C407.833 58.208 411.908 59.2533 415.62 61.344C419.375 63.4347 422.361 66.2293 424.58 69.728C426.841 66.2293 429.828 63.4347 433.54 61.344C437.252 59.2533 441.327 58.208 445.764 58.208C450.457 58.208 454.703 59.36 458.5 61.664C462.34 63.9253 465.391 66.976 467.652 70.816C469.956 74.6133 471.108 78.8587 471.108 83.552V124H455.492V87.712C455.492 85.2373 454.873 82.976 453.636 80.928C452.441 78.8373 450.82 77.1733 448.772 75.936C446.767 74.656 444.505 74.016 441.988 74.016C439.471 74.016 437.188 74.6347 435.14 75.872C433.135 77.0667 431.513 78.688 430.276 80.736C429.039 82.784 428.42 85.1093 428.42 87.712V124H412.804V87.712C412.804 85.1093 412.207 82.784 411.012 80.736C409.817 78.688 408.196 77.0667 406.148 75.872C404.1 74.6347 401.817 74.016 399.3 74.016C396.825 74.016 394.564 74.656 392.516 75.936C390.468 77.1733 388.825 78.8373 387.588 80.928C386.393 82.976 385.796 85.2373 385.796 87.712V124H370.18ZM499.546 156H483.93V60H499.546V68.128C501.637 65.2267 504.197 62.88 507.226 61.088C510.298 59.2533 513.882 58.336 517.978 58.336C522.671 58.336 527.045 59.2107 531.098 60.96C535.151 62.7093 538.714 65.1413 541.786 68.256C544.901 71.328 547.311 74.8907 549.018 78.944C550.767 82.9973 551.642 87.3493 551.642 92C551.642 96.6507 550.767 101.024 549.018 105.12C547.311 109.216 544.901 112.821 541.786 115.936C538.714 119.008 535.151 121.419 531.098 123.168C527.045 124.917 522.671 125.792 517.978 125.792C513.882 125.792 510.298 124.896 507.226 123.104C504.197 121.269 501.637 118.901 499.546 116V156ZM517.786 73.376C514.543 73.376 511.642 74.2293 509.082 75.936C506.522 77.6 504.517 79.84 503.066 82.656C501.615 85.472 500.89 88.5867 500.89 92C500.89 95.4133 501.615 98.5493 503.066 101.408C504.517 104.224 506.522 106.485 509.082 108.192C511.642 109.856 514.543 110.688 517.786 110.688C521.071 110.688 524.079 109.856 526.81 108.192C529.541 106.528 531.717 104.288 533.338 101.472C534.959 98.6133 535.77 95.456 535.77 92C535.77 88.5867 534.959 85.472 533.338 82.656C531.717 79.84 529.541 77.6 526.81 75.936C524.122 74.2293 521.114 73.376 517.786 73.376ZM560.68 124V28H576.296V124H560.68ZM591.68 60H607.296V124H591.68V60ZM599.616 51.744C597.312 51.744 595.371 50.9973 593.792 49.504C592.213 47.968 591.424 46.048 591.424 43.744C591.424 41.4827 592.213 39.584 593.792 38.048C595.371 36.512 597.291 35.744 599.552 35.744C601.813 35.744 603.712 36.512 605.248 38.048C606.827 39.584 607.616 41.4827 607.616 43.744C607.616 46.048 606.848 47.968 605.312 49.504C603.776 50.9973 601.877 51.744 599.616 51.744ZM669.436 60H685.052V124H669.436L668.732 116.064C666.983 118.923 664.657 121.248 661.756 123.04C658.897 124.789 655.505 125.664 651.58 125.664C646.844 125.664 642.407 124.768 638.268 122.976C634.129 121.184 630.481 118.709 627.324 115.552C624.209 112.395 621.756 108.747 619.964 104.608C618.215 100.469 617.34 96.032 617.34 91.296C617.34 86.7307 618.172 82.4427 619.836 78.432C621.543 74.4213 623.911 70.9013 626.94 67.872C629.969 64.8427 633.468 62.4747 637.436 60.768C641.404 59.0613 645.671 58.208 650.236 58.208C654.46 58.208 658.236 59.1467 661.564 61.024C664.935 62.9013 667.793 65.2907 670.14 68.192L669.436 60ZM651.196 110.624C654.524 110.624 657.468 109.792 660.028 108.128C662.588 106.464 664.593 104.224 666.044 101.408C667.495 98.5493 668.22 95.4133 668.22 92C668.22 88.544 667.495 85.408 666.044 82.592C664.593 79.7333 662.567 77.472 659.964 75.808C657.404 74.144 654.481 73.312 651.196 73.312C647.911 73.312 644.903 74.1653 642.172 75.872C639.484 77.536 637.329 79.776 635.708 82.592C634.129 85.408 633.34 88.544 633.34 92C633.34 95.456 634.151 98.592 635.772 101.408C637.393 104.224 639.548 106.464 642.236 108.128C644.967 109.792 647.953 110.624 651.196 110.624ZM756.429 83.552V124H740.813V87.648C740.813 85.1307 740.194 82.848 738.957 80.8C737.72 78.7093 736.056 77.0667 733.965 75.872C731.917 74.6347 729.634 74.016 727.117 74.016C724.6 74.016 722.296 74.6347 720.205 75.872C718.157 77.0667 716.514 78.7093 715.277 80.8C714.082 82.848 713.485 85.1307 713.485 87.648V124H697.869L697.805 60H713.421L713.485 65.696C715.661 63.392 718.264 61.5787 721.293 60.256C724.322 58.8907 727.586 58.208 731.085 58.208C735.736 58.208 739.981 59.36 743.821 61.664C747.661 63.9253 750.712 66.976 752.973 70.816C755.277 74.6133 756.429 78.8587 756.429 83.552ZM807.61 104.736L821.69 112.352C818.746 116.363 815.055 119.584 810.618 122.016C806.181 124.448 801.338 125.664 796.09 125.664C790.202 125.664 784.826 124.149 779.962 121.12C775.141 118.091 771.279 114.037 768.378 108.96C765.519 103.84 764.09 98.1867 764.09 92C764.09 87.3067 764.922 82.9333 766.586 78.88C768.25 74.784 770.533 71.2 773.434 68.128C776.378 65.0133 779.791 62.5813 783.674 60.832C787.557 59.0827 791.695 58.208 796.09 58.208C801.338 58.208 806.181 59.424 810.618 61.856C815.055 64.288 818.746 67.552 821.69 71.648L807.61 79.2C806.117 77.4933 804.346 76.1707 802.298 75.232C800.293 74.2933 798.223 73.824 796.09 73.824C793.018 73.824 790.245 74.6773 787.77 76.384C785.295 78.048 783.333 80.2667 781.882 83.04C780.431 85.7707 779.706 88.7573 779.706 92C779.706 95.2 780.431 98.1867 781.882 100.96C783.333 103.691 785.295 105.888 787.77 107.552C790.245 109.216 793.018 110.048 796.09 110.048C798.309 110.048 800.421 109.579 802.426 108.64C804.431 107.659 806.159 106.357 807.61 104.736ZM859.34 125.664C853.452 125.664 848.076 124.149 843.212 121.12C838.391 118.091 834.529 114.016 831.628 108.896C828.769 103.776 827.34 98.1227 827.34 91.936C827.34 87.2853 828.172 82.9333 829.836 78.88C831.5 74.784 833.783 71.2 836.684 68.128C839.628 65.0133 843.041 62.5813 846.924 60.832C850.807 59.0827 854.945 58.208 859.34 58.208C864.332 58.208 868.897 59.2747 873.036 61.408C877.217 63.4987 880.759 66.3787 883.66 70.048C886.561 73.7173 888.673 77.8987 889.996 82.592C891.319 87.2853 891.617 92.192 890.892 97.312H844.108C844.705 99.7013 845.687 101.856 847.052 103.776C848.417 105.653 850.145 107.168 852.236 108.32C854.327 109.429 856.695 110.005 859.34 110.048C862.071 110.091 864.545 109.451 866.764 108.128C869.025 106.763 870.903 104.928 872.396 102.624L888.332 106.336C885.729 112.011 881.847 116.661 876.684 120.288C871.521 123.872 865.74 125.664 859.34 125.664ZM843.596 85.6H875.084C874.615 83.04 873.612 80.736 872.076 78.688C870.583 76.5973 868.727 74.9333 866.508 73.696C864.289 72.4587 861.9 71.84 859.34 71.84C856.78 71.84 854.412 72.4587 852.236 73.696C850.06 74.8907 848.204 76.5333 846.668 78.624C845.175 80.672 844.151 82.9973 843.596 85.6Z" fill="white"/>
</svg>
