<svg width="567" height="160" viewBox="0 0 567 160" fill="none" xmlns="http://www.w3.org/2000/svg">
<path d="M79.6408 128.86L57.4667 106.686C41.7825 91.0017 15.2817 102.089 15.2817 124.263V153.197H144V64.5009L79.6408 128.86Z" fill="white"/>
<path d="M79.6408 31.2399L101.815 53.414C117.499 69.0981 144 58.0111 144 35.8369V6.9024H15.2817V95.5989L79.6408 31.2399Z" fill="white"/>
<path d="M214.68 124L232.088 34.4H245.016L266.84 91.808L288.664 34.4H301.592L319 124H303.064L292.312 68.576L272.152 121.952H261.464L241.304 68.576L230.616 124H214.68ZM331.805 60H347.421V124H331.805V60ZM339.741 51.744C337.437 51.744 335.496 50.9973 333.917 49.504C332.338 47.968 331.549 46.048 331.549 43.744C331.549 41.4827 332.338 39.584 333.917 38.048C335.496 36.512 337.416 35.744 339.677 35.744C341.938 35.744 343.837 36.512 345.373 38.048C346.952 39.584 347.741 41.4827 347.741 43.744C347.741 46.048 346.973 47.968 345.437 49.504C343.901 50.9973 342.002 51.744 339.741 51.744ZM362.369 124L362.305 60H377.921L377.985 65.696C380.161 63.392 382.764 61.5787 385.793 60.256C388.822 58.8907 392.086 58.208 395.585 58.208C397.932 58.208 400.278 58.5493 402.625 59.232L396.481 74.976C394.86 74.336 393.238 74.016 391.617 74.016C389.1 74.016 386.796 74.6347 384.705 75.872C382.657 77.0667 381.014 78.7093 379.777 80.8C378.582 82.848 377.985 85.1307 377.985 87.648V124H362.369ZM410.119 124L410.055 60H425.671L425.735 65.696C427.911 63.392 430.514 61.5787 433.543 60.256C436.572 58.8907 439.836 58.208 443.335 58.208C445.682 58.208 448.028 58.5493 450.375 59.232L444.231 74.976C442.61 74.336 440.988 74.016 439.367 74.016C436.85 74.016 434.546 74.6347 432.455 75.872C430.407 77.0667 428.764 78.7093 427.527 80.8C426.332 82.848 425.735 85.1307 425.735 87.648V124H410.119ZM482.715 125.664C476.827 125.664 471.451 124.149 466.587 121.12C461.766 118.091 457.904 114.037 455.003 108.96C452.144 103.84 450.715 98.1867 450.715 92C450.715 87.3067 451.547 82.9333 453.211 78.88C454.875 74.784 457.158 71.2 460.059 68.128C463.003 65.0133 466.416 62.5813 470.299 60.832C474.182 59.0827 478.32 58.208 482.715 58.208C488.603 58.208 493.958 59.7227 498.779 62.752C503.643 65.7813 507.504 69.856 510.363 74.976C513.264 80.096 514.715 85.7707 514.715 92C514.715 96.6507 513.883 101.003 512.219 105.056C510.555 109.109 508.251 112.693 505.307 115.808C502.406 118.88 499.014 121.291 495.131 123.04C491.291 124.789 487.152 125.664 482.715 125.664ZM482.715 110.048C485.83 110.048 488.624 109.216 491.099 107.552C493.574 105.888 495.515 103.691 496.923 100.96C498.374 98.2293 499.099 95.2427 499.099 92C499.099 88.672 498.352 85.6427 496.859 82.912C495.408 80.1387 493.424 77.9413 490.907 76.32C488.432 74.656 485.702 73.824 482.715 73.824C479.643 73.824 476.87 74.656 474.395 76.32C471.92 77.984 469.958 80.2027 468.507 82.976C467.056 85.7493 466.331 88.7573 466.331 92C466.331 95.3707 467.078 98.4213 468.571 101.152C470.064 103.883 472.048 106.059 474.523 107.68C477.04 109.259 479.771 110.048 482.715 110.048ZM524.744 124L524.68 60H540.296L540.36 65.696C542.536 63.392 545.139 61.5787 548.168 60.256C551.197 58.8907 554.461 58.208 557.96 58.208C560.307 58.208 562.653 58.5493 565 59.232L558.856 74.976C557.235 74.336 555.613 74.016 553.992 74.016C551.475 74.016 549.171 74.6347 547.08 75.872C545.032 77.0667 543.389 78.7093 542.152 80.8C540.957 82.848 540.36 85.1307 540.36 87.648V124H524.744Z" fill="white"/>
</svg>
